<?xml version="1.0" encoding="UTF-8" standalone="no"?><svg xmlns="http://www.w3.org/2000/svg" height="48" viewBox="0 0 48 48"><path d="M23.87.99h.26q7 0 13.07 4.12 1.24.88 2.62 2.15 1.63 1.6 2.12 2.3 1.28 1.63 1.93 2.77Q47 17.79 47 23.87v.26q0 7-4.12 13.07-.88 1.24-2.16 2.61-1.6 1.64-2.29 2.13-1.63 1.27-2.77 1.93Q30.2 47 24.13 47h-.26q-7 0-13.07-4.11-1.24-.89-2.62-2.16-1.63-1.6-2.12-2.29-1.28-1.63-1.93-2.78Q.99 30.21.99 24.13v-.26q0-7 4.12-13.08Q6 9.55 7.27 8.18q1.6-1.63 2.29-2.12 1.63-1.28 2.77-1.93Q17.8.99 23.87.99z" fill="#007bb5"/><g stroke-width=".75" fill="#ffffff"><path d="M13.36 10.03a3.36 3.36 0 100 6.72 3.36 3.36 0 000-6.72zM31.04 18.84a6.1 6.1 0 00-5.49 3.02h-.08V19.3h-5.56v18.67h5.8v-9.24c0-2.43.46-4.8 3.48-4.8 2.97 0 3.01 2.8 3.01 4.96v9.08H38V27.74c0-5.03-1.08-8.9-6.96-8.9zM10.46 19.3v18.68h5.8V19.3z"/></g></svg>